<?xml version="1.0" encoding="utf-8"?>
<!-- Generator: Adobe Illustrator 16.0.0, SVG Export Plug-In . SVG Version: 6.00 Build 0)  -->
<!DOCTYPE svg PUBLIC "-//W3C//DTD SVG 1.1//EN" "http://www.w3.org/Graphics/SVG/1.1/DTD/svg11.dtd">
<svg version="1.1" id="Layer_1" xmlns="http://www.w3.org/2000/svg" xmlns:xlink="http://www.w3.org/1999/xlink" x="0px" y="0px"
	 width="1190.549px" height="841.891px" viewBox="0 0 1190.549 841.891" enable-background="new 0 0 1190.549 841.891"
	 xml:space="preserve">
<g>
	<path fill="#FFFFFF" d="M384.465,191.951h422.292c27.614,0,50.514-22.899,50.514-50.514c0-27.614-22.899-50.513-50.514-50.513
		H384.465c-27.613,0-50.513,22.899-50.513,50.513C333.952,169.052,356.852,191.951,384.465,191.951z"/>
	<path fill="#FFFFFF" d="M806.757,286.243H384.465c-27.613,0-50.513,22.9-50.513,50.513c0,27.614,22.899,50.514,50.513,50.514
		h422.292c27.614,0,50.514-22.899,50.514-50.514C857.271,309.143,834.371,286.243,806.757,286.243z"/>
	<path fill="#FFFFFF" d="M806.757,481.562H384.465c-27.613,0-50.513,22.899-50.513,50.513c0,27.614,22.899,50.514,50.513,50.514
		h422.292c27.614,0,50.514-22.899,50.514-50.514C857.271,504.461,834.371,481.562,806.757,481.562z"/>
</g>
</svg>
